<svg width="135" height="16" viewBox="0 0 135 16" fill="none" xmlns="http://www.w3.org/2000/svg">
<path d="M0.666667 8C0.666667 10.9455 3.05448 13.3333 6 13.3333C8.94552 13.3333 11.3333 10.9455 11.3333 8C11.3333 5.05448 8.94552 2.66667 6 2.66667C3.05448 2.66667 0.666667 5.05448 0.666667 8ZM134.707 8.70711C135.098 8.31658 135.098 7.68342 134.707 7.29289L128.343 0.928932C127.953 0.538408 127.319 0.538408 126.929 0.928932C126.538 1.31946 126.538 1.95262 126.929 2.34315L132.586 8L126.929 13.6569C126.538 14.0474 126.538 14.6805 126.929 15.0711C127.319 15.4616 127.953 15.4616 128.343 15.0711L134.707 8.70711ZM6 9H134V7H6V9Z" fill="white"/>
</svg>
