<svg width="30" height="21" viewBox="0 0 30 21" fill="none" xmlns="http://www.w3.org/2000/svg">
<path d="M29.8896 20.2018L29.8588 20.2326H24.4393L24.4084 20.2018V0.0308656L24.4393 0H29.8588L29.8896 0.0308656V20.2018Z" fill="white"/>
<path d="M21.7877 20.1954L21.7505 20.2326H16.5598L16.5226 20.1954V4.88292L16.5598 4.8457H21.7505L21.7877 4.88292V20.1954Z" fill="white"/>
<path d="M13.8101 20.2026L13.7801 20.2326H8.57488L8.54492 20.2026V9.51623L8.57488 9.48627H13.7801L13.8101 9.51623V20.2026Z" fill="white"/>
<path d="M5.47029 13.1101L5.46938 20.1945L5.43126 20.2326H0.0390353L0.0154321 20.2244L0.000908668 20.1945L0 13.1101L0.00544647 13.0902L0.0381267 13.072H5.43217L5.47029 13.1101Z" fill="white"/>
</svg>
