<svg width="74" height="31" viewBox="0 0 74 31" fill="none" xmlns="http://www.w3.org/2000/svg">
<path d="M58.0283 0.110641L73.3477 30.8434L73.356 30.8661L73.3361 30.9541L73.255 30.9934L72.031 30.9983L69.55 31L67.7479 30.9646L67.6635 30.938L67.604 30.8722L58.0195 11.7186L57.9787 11.6859L57.9274 11.6948L57.9208 11.7003L57.8778 11.7623L50.7247 26.0809L49.1896 29.1053L48.402 30.6493L48.3098 30.7793L48.1615 30.8877L47.8835 30.9469L42.9688 30.9867L42.4459 30.9585L42.3907 30.9541L42.2986 30.9231L42.2319 30.8534L33.4031 15.5689L33.3981 15.487L33.4599 15.4328L33.4842 15.43L38.015 15.4743L38.8854 15.399L39.2797 15.3078L39.4342 15.2563L39.8788 15.0981L40.2075 14.9382L40.3973 14.8331L40.8573 14.5449L41.3052 14.1825L41.7437 13.73L41.9059 13.5436L42.1116 13.2786L42.581 12.4731L42.8138 11.8834L42.9489 11.3534L42.9831 11.1587L43.0438 10.6127L43.0256 9.81996L42.9572 9.36412L42.7664 8.61618L42.6897 8.42754L42.0443 7.3084L41.9643 7.20661L41.0846 6.36021L40.8518 6.15829L40.6041 5.98901L40.4828 5.91488L40.1546 5.72568L39.8876 5.6167L39.2069 5.39155L38.7304 5.29639L38.2725 5.25988L37.2477 5.2029L27.901 5.21618L27.6814 5.1758L27.49 5.04911L27.1392 4.68068L26.9258 4.3908L24.5429 0.293199L24.4651 0.139961L24.459 0.121152L24.4795 0.0381713L24.5567 0.00165955L37.3503 0L38.4408 0.0492353L39.7547 0.171494L39.7867 0.17426L40.2947 0.279923L41.8088 0.745721L42.0272 0.836448L43.425 1.61038L43.9059 1.94507L44.3781 2.34836L45.0952 2.97127L45.574 3.45311L46.1024 4.08598L46.5734 4.7454L46.9871 5.43027L47.3435 6.14114L47.6088 6.78562L47.8686 7.62152L48.0208 8.32132L48.071 8.60844L48.1609 9.26067L48.1797 9.60808L48.2073 10.2365L48.1973 10.7117L48.1802 10.9939L48.1107 11.8165L47.9734 12.5932L47.7743 13.3638L47.6253 13.7953L47.435 14.2362L47.2817 14.577L47.0633 15.0505L46.8685 15.3902L46.6093 15.7996L46.2243 16.3943L45.8972 16.8119L45.312 17.4852L45.0786 17.7302L44.7907 17.9809L43.7774 18.8084L43.5546 18.9633L41.9754 19.8496L41.9324 19.9043L41.9406 19.9729L41.9412 19.9735L45.0836 25.4834L45.1046 25.5111L45.1371 25.5332L45.2022 25.5376L45.2513 25.4945L57.9158 0.110088L57.9274 0.0934919L57.982 0.0763427L58.0283 0.110641Z" fill="#011627"/>
<path d="M29.8896 30.9169L29.8588 30.9477H24.4393L24.4084 30.9169V10.746L24.4393 10.7151H29.8588L29.8896 10.746V30.9169Z" fill="#1C6E6A"/>
<path d="M21.7877 30.9105L21.7504 30.9477H16.5597L16.5225 30.9105V15.598L16.5597 15.5608H21.7504L21.7877 15.598V30.9105Z" fill="#1C6E6A"/>
<path d="M13.8101 30.9177L13.7801 30.9476H8.57488L8.54492 30.9177V20.2313L8.57488 20.2013H13.7801L13.8101 20.2313V30.9177Z" fill="#1C6E6A"/>
<path d="M5.47029 23.8252L5.46938 30.9096L5.43126 30.9477H0.0390353L0.0154321 30.9395L0.000908668 30.9096L0 23.8252L0.00544647 23.8053L0.0381267 23.7871H5.43217L5.47029 23.8252Z" fill="#1C6E6A"/>
</svg>
